<?xml version="1.0" encoding="utf-8"?>
<!-- Generator: Adobe Illustrator 23.0.3, SVG Export Plug-In . SVG Version: 6.00 Build 0)  -->
<svg version="1.1" id="Слой_1" xmlns="http://www.w3.org/2000/svg" xmlns:xlink="http://www.w3.org/1999/xlink" x="0px" y="0px"
	 viewBox="0 0 708.7 88.8" style="enable-background:new 0 0 708.7 88.8;" xml:space="preserve">
<style type="text/css">
	.st0{fill:#163E6C;}
</style>
<g>
	<polygon class="st0" points="45.9,61.1 58.9,27.7 87.4,27.7 80.9,44.4 116,44.4 133.3,0 133.3,0 133.3,0 10.4,0 23.8,27.7 
		41.1,27.7 18.6,40.9 0,88.8 0,88.8 98.8,88.8 109.5,61.1 	"/>
	<polygon class="st0" points="567.3,0 551.9,39.5 523.5,39.5 523.5,39.5 538.9,0 503.8,0 469.2,88.8 504.3,88.8 511.7,69.6 
		511.7,69.6 546.2,54.2 532.7,88.8 567.8,88.8 602.4,0 	"/>
	<path class="st0" d="M210.2,0l-47,39.9L178.7,0h-35.1L109,88.8h35.1L191,49.2l-15.4,39.6h35.1L240,13.5l9.2,14.2h22.1l-50.5,61.1
		h40.4l50.5-61.1h11.4l-23.8,61.1h35.1L364,13.1l9.5,14.6h22.1l-50.5,61.1h40.4l24-29l18.7,17.4l-4.6,11.7h35.1L493.4,0H210.2z
		 M439.3,48.6h-20.6l17.3-21h11.4L439.3,48.6z"/>
	<polygon class="st0" points="697.9,27.7 708.7,0 610,0 599.2,27.7 646.8,27.7 624.4,40.9 616.5,61.1 604.2,61.1 593.4,88.8 
		654.5,88.8 665.2,61.1 651.6,61.1 664.6,27.7 	"/>
</g>
</svg>
