<?xml version="1.0" standalone="no"?>
<!DOCTYPE svg PUBLIC "-//W3C//DTD SVG 20010904//EN"
 "http://www.w3.org/TR/2001/REC-SVG-20010904/DTD/svg10.dtd">
<svg version="1.0" xmlns="http://www.w3.org/2000/svg"
 width="3508.000000pt" height="2481.000000pt" viewBox="0 0 3508.000000 2481.000000"
 preserveAspectRatio="xMidYMid meet">

<g transform="translate(0.000000,2481.000000) scale(0.100000,-0.100000)"
fill="#000000" stroke="none">
<path d="M2784 19663 c4 -10 390 -989 858 -2175 l852 -2158 5302 0 5302 0
-139 -355 c-76 -195 -143 -363 -149 -375 l-11 -20 -3718 -2 -3718 -3 836
-2170 837 -2170 2035 -5 2036 -5 -143 -365 -142 -365 -1741 -3 c-958 -1 -1741
-4 -1741 -6 0 -3 387 -978 860 -2167 473 -1189 860 -2168 860 -2176 0 -11
1313 -13 7793 -13 l7793 0 844 2167 c465 1191 846 2172 848 2179 3 12 -809 14
-4996 16 l-5000 3 1136 2918 1137 2917 2238 0 c1231 0 2236 -3 2233 -8 -6 -9
-1016 -2602 -1016 -2608 0 -2 1241 -4 2758 -4 l2758 0 1351 3468 c744 1907
1355 3475 1358 3485 7 16 -700 17 -14755 17 -14055 0 -14762 -1 -14756 -17z"/>
</g>
</svg>
