<?xml version="1.0" encoding="UTF-8"?> <svg xmlns="http://www.w3.org/2000/svg" width="4640" height="580" viewBox="0 0 4640 580" fill="none"> <path d="M300.579 399.144L385.77 180.865H572.112L529.517 289.958H759.382L872.598 0H67.9296L155.997 180.865H269.12L122.032 267.362L0 580H646.63L717.251 399.144H300.579ZM3714.6 0L3613.82 258.008H3427.48L3528.26 0H3298.39L3071.87 580H3301.74L3350.66 454.885L3576.25 354.229L3488.09 580H3718.05L3944.46 0H3714.6ZM1376.13 0L1068.31 260.972L1170.21 0H940.342L713.818 580H943.683L1250.57 321.436L1149.61 580H1379.47L1571.57 88.1636L1631.8 180.865H1776.66L1446.2 579.917H1710.95L2041.41 180.865H2116.21L1960.4 579.917H2190.27L2383.48 85.2928L2445.56 180.865H2590.42L2259.87 579.917H2524.62L2681.92 390.152L2804.04 503.598L2774.26 580H3004.12L3230.65 0H1376.13ZM2876.52 317.834H2741.78L2855.18 180.865H2929.98L2876.52 317.834ZM4569.38 180.865L4640 0H3993.83L3923.21 180.865H4235.03L4087.93 267.362L4036.52 399.144H3956.06L3885.45 580H4285.05L4355.76 399.144H4266.49L4351.68 180.865H4569.38Z" fill="#163E6C"></path> </svg>